<svg width="10" height="10" viewBox="0 0 10 10" fill="none" xmlns="http://www.w3.org/2000/svg">
<path fill-rule="evenodd" clip-rule="evenodd" d="M10 3.33333H8.33333V1.66667H6.66667V0H3.33333V1.66667H1.66667V3.33333H0V6.66667H1.66667V8.33333H3.33333V10H6.66667V8.33333H8.33333V6.66667H10V3.33333Z" fill="#98A4BF"/>
<path fill-rule="evenodd" clip-rule="evenodd" d="M9.18465 4.14974H7.51799V2.48307H5.85132V0.816406H4.18465V2.48307H2.51799V4.14974H0.851318V5.81641H2.51799V7.48307H4.18465V9.14974H5.85132V7.48307H7.51799V5.81641H9.18465V4.14974Z" fill="white"/>
<path fill-rule="evenodd" clip-rule="evenodd" d="M7.51758 4.1497H5.85091V2.48303H4.18424V4.1497H2.51758V5.81636H4.18424V7.48303H5.85091V5.81636H7.51758V4.1497Z" fill="#7E8BA7"/>
</svg>
