<svg width="24" height="24" viewBox="0 0 24 24" fill="none" xmlns="http://www.w3.org/2000/svg">
<path d="M12.1564 5.87839C13.5943 5.87751 14.9862 6.38564 16.0853 7.31275L19.164 4.38094C17.9821 3.2912 16.5626 2.49192 15.0179 2.04653C13.4733 1.60114 11.8461 1.5219 10.2655 1.8151C8.68494 2.1083 7.19444 2.76587 5.91232 3.73562C4.6302 4.70538 3.59175 5.96062 2.87939 7.40173L6.35021 10.077C6.755 8.85637 7.53356 7.79406 8.57563 7.04052C9.61769 6.28698 10.8704 5.8804 12.1564 5.87839Z" fill="#D94F3D"/>
<path d="M6.03677 11.998C6.03764 11.345 6.1435 10.6963 6.35029 10.0769L2.87947 7.40161C2.16951 8.82981 1.80005 10.4031 1.80005 11.998C1.80005 13.5929 2.16951 15.1662 2.87947 16.5944L6.35029 13.9191C6.1435 13.2997 6.03764 12.651 6.03677 11.998Z" fill="#F2C042"/>
<path d="M22.0892 10.115H12.2035V14.3517H17.8054C17.4721 15.5497 16.7086 16.5825 15.6611 17.2525L19.1051 19.9075C21.3059 17.9322 22.599 14.7203 22.0892 10.115Z" fill="#5085ED"/>
<path d="M15.6597 17.2526C14.5954 17.8617 13.382 18.1614 12.1564 18.1178C10.8704 18.1158 9.61769 17.7092 8.57563 16.9557C7.53356 16.2021 6.755 15.1398 6.35021 13.9192L2.87939 16.5944C3.73669 18.3226 5.05917 19.7773 6.69807 20.7949C8.33698 21.8125 10.2273 22.3526 12.1564 22.3545C14.6949 22.4235 17.1692 21.5516 19.1037 19.9066L15.6597 17.2526Z" fill="#57A75C"/>
</svg>
