<svg width="18" height="22" viewBox="0 0 18 22" fill="none" xmlns="http://www.w3.org/2000/svg">
<path fill-rule="evenodd" clip-rule="evenodd" d="M9.71531 1.87952C11.1346 0.00905793 13.1075 0 13.1075 0C13.1075 0 13.4008 1.75863 11.9909 3.45281C10.4856 5.26161 8.77434 4.96583 8.77434 4.96583C8.77434 4.96583 8.45313 3.54304 9.71531 1.87952Z" fill="#354159"/>
<path fill-rule="evenodd" clip-rule="evenodd" d="M8.95515 6.19778C9.68535 6.19778 11.0402 5.19409 12.8041 5.19409C15.8402 5.19409 17.0345 7.35441 17.0345 7.35441C17.0345 7.35441 14.6986 8.54866 14.6986 11.4468C14.6986 14.7161 17.6086 15.8427 17.6086 15.8427C17.6086 15.8427 15.5744 21.5684 12.8267 21.5684C11.5649 21.5684 10.5835 20.718 9.25406 20.718C7.8992 20.718 6.55445 21.6001 5.67862 21.6001C3.16957 21.6001 0 16.1688 0 11.8032C0 7.50804 2.68289 5.25471 5.19959 5.25471C6.8349 5.25436 8.1044 6.19778 8.95515 6.19778Z" fill="#354159"/>
</svg>
