<svg width="150" height="21" viewBox="0 0 150 21" fill="none" xmlns="http://www.w3.org/2000/svg">
<path d="M25.2825 0.60614H30.0587V19.9359H25.2825V0.60614Z" fill="#1B8F43"/>
<path d="M32.4536 6.0939H36.6916V7.98639H36.7725C37.7979 6.50108 39.1189 5.68903 41.0359 5.68903C44.0591 5.68903 45.8397 7.8522 45.8397 10.9339V19.9359H41.4493V11.8246C41.4493 10.367 40.7218 9.36526 39.2922 9.36526C37.8626 9.36526 36.8625 10.5822 36.8625 12.285V19.9359H32.4536V6.0939Z" fill="#1B8F43"/>
<path d="M48.2278 0.60614H52.5721V10.7719L56.6738 6.0939H61.7548L56.9048 11.2855L62.3276 19.9359H57.2143L53.8954 14.2862L52.5721 15.6905V19.9359H48.2278V0.60614Z" fill="#1B8F43"/>
<path d="M62.547 16.07C62.547 13.0161 64.9743 12.0976 67.8358 11.7182C70.4248 11.3943 71.344 11.1236 71.344 10.1773C71.344 9.2843 70.7759 8.68972 69.4548 8.68972C68.0506 8.68972 67.3485 9.31206 67.2146 10.4735H63.159C63.2676 7.90542 65.2376 5.7168 69.4202 5.7168C71.4988 5.7168 72.9007 6.09391 73.9007 6.85044C75.0878 7.71571 75.6536 9.06914 75.6536 10.7997V17.7727C75.6536 18.8809 75.7622 19.5033 76.141 19.7462V19.9359H71.8822C71.6674 19.6375 71.5311 19.0984 71.4203 18.3951H71.3648C70.5565 19.5519 69.3417 20.2876 67.2631 20.2876C64.517 20.2876 62.547 18.8 62.547 16.07ZM71.4503 14.9872V13.34C70.7246 13.667 69.9647 13.9114 69.1846 14.0687C67.4848 14.4458 66.7827 14.8808 66.7827 15.9358C66.7827 17.044 67.591 17.4743 68.6719 17.4743C70.3186 17.4743 71.4503 16.4748 71.4503 14.9872Z" fill="#1B8F43"/>
<path d="M79.2473 8.90701H77.4782V6.09373H79.2588V5.09427C79.2588 3.66218 79.663 2.6072 80.3928 1.87611C81.5799 0.719336 83.8733 0.444021 86.2475 0.689258V3.79636C84.5754 3.74315 83.6585 3.87734 83.6585 5.41585V6.09141H86.2475V8.9047H83.647V19.9334H79.2473V8.90701Z" fill="#1B8F43"/>
<path d="M86.9287 16.07C86.9287 13.0161 89.356 12.0976 92.2176 11.7182C94.8089 11.3943 95.7258 11.1236 95.7258 10.1773C95.7258 9.2843 95.1599 8.68972 93.8366 8.68972C92.4347 8.68972 91.7303 9.31206 91.5963 10.4735H87.55C87.6562 7.90542 89.6286 5.7168 93.8088 5.7168C95.8874 5.7168 97.2916 6.09391 98.2893 6.85044C99.4764 7.71571 100.045 9.06914 100.045 10.7997V17.7727C100.045 18.8809 100.151 19.5033 100.53 19.7462V19.9359H96.2662C96.0491 19.6375 95.9151 19.0984 95.8043 18.3951H95.7512C94.9405 19.5519 93.7257 20.2876 91.6494 20.2876C88.8988 20.2876 86.9287 18.8 86.9287 16.07ZM95.8343 14.9872V13.34C95.1077 13.6666 94.347 13.911 93.5663 14.0687C91.8665 14.4458 91.1644 14.8808 91.1644 15.9358C91.1644 17.044 91.9751 17.4743 93.0536 17.4743C94.7003 17.4743 95.8343 16.4748 95.8343 14.9872Z" fill="#1B8F43"/>
<path d="M102.433 6.09391H106.641V8.25708H106.724C107.694 6.60983 108.828 5.87874 110.502 5.87874C110.794 5.85977 111.086 5.89667 111.364 5.98748V9.77015H111.257C108.558 9.39304 106.83 10.7164 106.83 13.7171V19.9359H102.442L102.433 6.09391Z" fill="#1B8F43"/>
<path d="M113.154 6.0939H117.364V8.07893H117.445C118.311 6.64684 119.632 5.70059 121.627 5.70059C122.441 5.67588 123.245 5.89231 123.936 6.32278C124.628 6.75324 125.178 7.37861 125.517 8.12057H125.572C126.648 6.44555 128.133 5.68903 129.916 5.68903C133.046 5.68903 134.612 7.82444 134.612 10.9339V19.9359H130.223V11.7182C130.223 10.2305 129.604 9.36526 128.281 9.36526C126.879 9.36526 126.096 10.522 126.096 12.1762V19.9359H121.683V11.7182C121.683 10.2305 121.061 9.36526 119.738 9.36526C118.352 9.36526 117.556 10.522 117.556 12.1762V19.9359H113.154V6.0939Z" fill="#1B8F43"/>
<path d="M136.399 16.07C136.399 13.0161 138.829 12.0976 141.69 11.7182C144.279 11.3943 145.199 11.1236 145.199 10.1773C145.199 9.2843 144.63 8.68972 143.309 8.68972C141.905 8.68972 141.205 9.31206 141.069 10.4735H137.02C137.129 7.90542 139.099 5.7168 143.282 5.7168C145.36 5.7168 146.762 6.09391 147.762 6.85044C148.949 7.71571 149.515 9.06914 149.515 10.7997V17.7727C149.515 18.8809 149.624 19.5033 150 19.7462V19.9359H145.737C145.522 19.6375 145.386 19.0984 145.275 18.3951H145.219C144.411 19.5519 143.196 20.2876 141.118 20.2876C138.369 20.2876 136.399 18.8 136.399 16.07ZM145.307 14.9872V13.34C144.58 13.6663 143.82 13.9107 143.039 14.0687C141.339 14.4458 140.637 14.8808 140.637 15.9358C140.637 17.044 141.446 17.4743 142.524 17.4743C144.171 17.4743 145.307 16.4748 145.307 14.9872Z" fill="#1B8F43"/>
<path d="M20.5226 10.2791C20.5226 12.3126 19.9205 14.3003 18.7926 15.9909C17.6647 17.6815 16.0615 18.999 14.186 19.7767C12.3104 20.5544 10.2468 20.7574 8.25601 20.3601C6.26526 19.9627 4.4369 18.9828 3.0022 17.5443C1.5675 16.1058 0.590938 14.2734 0.196048 12.2788C-0.198842 10.2843 0.00568197 8.21717 0.783751 6.33907C1.56182 4.46096 2.87847 2.85622 4.56714 1.72785C6.25582 0.599478 8.24064 -0.0018265 10.2705 4.16767e-06C12.9904 0.0024571 15.598 1.08652 17.5204 3.01397C19.4427 4.94141 20.5226 7.55455 20.5226 10.2791Z" fill="#1B8F43"/>
<path d="M17.1113 7.99333H14.8295V5.70523H12.5454V3.41943H7.98173V5.70523H5.69529V7.99333H3.41577V12.5649H5.69529V14.8553H7.98173V17.1388H12.5454V14.8553H14.8295V12.5649H17.1113V7.99333Z" fill="#FFF200"/>
<path d="M15.9705 9.13391H13.6887V6.85043H11.4068V4.56232H9.1204V6.85043H6.84089V9.13391H4.55444V11.4243H6.84089V13.7101H9.1204V15.9959H11.4068V13.7101H13.6887V11.4243H15.9705V9.13391Z" fill="white"/>
<path d="M13.6887 9.13625H11.4045V6.84814H9.1227V9.13625H6.83856V11.422H9.1227V13.7101H11.4045V11.422H13.6887V9.13625Z" fill="#CD0B0F"/>
</svg>
