<svg width="14" height="14" viewBox="0 0 14 14" fill="none" xmlns="http://www.w3.org/2000/svg">
<path fill-rule="evenodd" clip-rule="evenodd" d="M3.73323 0C1.67142 0 0 1.67142 0 3.73323V9.60013C0 11.6619 1.67142 13.3334 3.73323 13.3334H9.60013C11.6619 13.3334 13.3334 11.6619 13.3334 9.60013V3.73323C13.3334 1.67142 11.6619 0 9.60013 0H3.73323ZM1.06621 3.73323C1.06621 2.26028 2.26028 1.06621 3.73323 1.06621H9.60013C11.0731 1.06621 12.2671 2.26028 12.2671 3.73323V9.60013C12.2671 11.0731 11.0731 12.2671 9.60013 12.2671H6.70984V8.35403H8.06765C8.40136 8.35403 8.67188 8.08352 8.67188 7.74981C8.67188 7.41611 8.40136 7.14559 8.06765 7.14559H6.70984V5.84237C6.70984 5.82946 6.70941 5.81655 6.70856 5.80367C6.69482 5.59585 6.74278 5.27963 6.90725 5.03479C6.97886 4.92819 7.07926 4.82387 7.22914 4.74574C7.37929 4.66748 7.58291 4.6135 7.86366 4.6135C7.86366 4.6135 8.39382 4.6135 8.71784 4.6135C9.04186 4.6135 9.30453 4.35084 9.30453 4.02682C9.30453 3.7028 9.04186 3.44013 8.71784 3.44013H7.86366C6.93258 3.44013 6.30096 3.83305 5.93322 4.38051C5.59544 4.88337 5.51427 5.46335 5.53646 5.86012V7.14559H4.38481C4.11091 7.14559 3.87974 7.32779 3.80555 7.57744L3.80329 7.58504L3.7878 7.71354V7.84339C3.83282 8.13268 4.0829 8.35403 4.38481 8.35403H5.53646V12.2671H3.73323C2.26028 12.2671 1.06621 11.0731 1.06621 9.60013V3.73323Z" fill="white"/>
</svg>
