<svg width="11" height="11" viewBox="0 0 11 11" fill="none" xmlns="http://www.w3.org/2000/svg">
<path d="M7.63044 4.41095C7.45227 4.5905 7.16168 4.5922 6.98139 4.41476C6.8011 4.23731 6.79939 3.94791 6.97756 3.76836C7.15574 3.58881 7.44633 3.5871 7.62662 3.76455C7.80691 3.94199 7.80862 4.2314 7.63044 4.41095Z" fill="white"/>
<path fill-rule="evenodd" clip-rule="evenodd" d="M4.69024 1.78167C5.02384 1.44549 5.47521 1.25103 5.94965 1.2391L8.3321 1.17918C9.37353 1.15299 10.2281 1.99412 10.2141 3.03152L10.182 5.40475C10.1757 5.87736 9.98574 6.32914 9.65214 6.66532L6.17167 10.1726C5.60151 10.7472 4.67162 10.7527 4.0947 10.1848L1.22202 7.35746C0.645095 6.78963 0.639612 5.86355 1.20977 5.28899L4.69024 1.78167ZM3.29287 6.31103C3.43541 6.16739 3.66788 6.16602 3.81212 6.30798L5.11788 7.59315C5.26211 7.73511 5.26348 7.96663 5.12094 8.11027C4.9784 8.25391 4.74593 8.25527 4.6017 8.11332L3.29593 6.82815C3.1517 6.68619 3.15033 6.45467 3.29287 6.31103ZM8.15275 4.92501C7.68949 5.39184 6.93395 5.39628 6.46521 4.93492C5.99646 4.47357 5.992 3.72112 6.45526 3.25429C6.91851 2.78746 7.67405 2.78302 8.1428 3.24438C8.61155 3.70574 8.616 4.45818 8.15275 4.92501Z" fill="white"/>
</svg>
