<svg width="14" height="14" viewBox="0 0 14 14" fill="none" xmlns="http://www.w3.org/2000/svg">
<path fill-rule="evenodd" clip-rule="evenodd" d="M3.4668 6.66658C3.4668 4.89934 4.89943 3.46671 6.66667 3.46671C8.43391 3.46671 9.86654 4.89934 9.86654 6.66658C9.86654 8.43382 8.43391 9.86645 6.66667 9.86645C4.89943 9.86645 3.4668 8.43382 3.4668 6.66658ZM6.66667 4.53292C5.48828 4.53292 4.53301 5.48819 4.53301 6.66658C4.53301 7.84497 5.48828 8.80024 6.66667 8.80024C7.84505 8.80024 8.80033 7.84497 8.80033 6.66658C8.80033 5.48819 7.84505 4.53292 6.66667 4.53292Z" fill="white"/>
<path d="M10.9335 3.19986C10.9335 3.6417 10.5753 3.99989 10.1335 3.99989C9.69163 3.99989 9.33344 3.6417 9.33344 3.19986C9.33344 2.75801 9.69163 2.39983 10.1335 2.39983C10.5753 2.39983 10.9335 2.75801 10.9335 3.19986Z" fill="white"/>
<path fill-rule="evenodd" clip-rule="evenodd" d="M0 3.73322C0 1.67142 1.67142 0 3.73322 0H9.60011C11.6619 0 13.3333 1.67142 13.3333 3.73322V9.60011C13.3333 11.6619 11.6619 13.3333 9.60011 13.3333H3.73322C1.67142 13.3333 0 11.6619 0 9.60011V3.73322ZM3.73322 1.06621C2.26027 1.06621 1.06621 2.26027 1.06621 3.73322V9.60011C1.06621 11.0731 2.26027 12.2671 3.73322 12.2671H9.60011C11.0731 12.2671 12.2671 11.0731 12.2671 9.60011V3.73322C12.2671 2.26027 11.0731 1.06621 9.60011 1.06621H3.73322Z" fill="white"/>
</svg>
