<svg width="20" height="20" viewBox="0 0 20 20" fill="none" xmlns="http://www.w3.org/2000/svg">
<path d="M0.5 6.5C0.5 4.567 2.04665 3 3.95455 3H16.0455C17.9533 3 19.5 4.567 19.5 6.5V13.5C19.5 15.433 17.9533 17 16.0455 17H3.95455C2.04665 17 0.5 15.433 0.5 13.5V6.5Z" fill="black"/>
<path d="M7.18484 8.80549C6.94105 8.67421 6.60162 8.58795 6.33158 8.58795C6.14967 8.58795 5.83462 8.66671 5.83462 8.89175C5.83462 9.19555 6.33158 9.24056 6.54911 9.28369C7.28986 9.43184 7.84682 9.78064 7.84495 10.6077C7.84495 11.7835 6.77415 12.2692 5.7371 12.2692C5.10138 12.2692 4.47502 12.0854 3.93494 11.7553L4.51066 10.6508C4.83321 10.8777 5.37142 11.1046 5.76336 11.1046C5.96402 11.1046 6.26032 11.009 6.26032 10.7652C6.26032 10.4164 5.76336 10.3995 5.26828 10.2682C4.77132 10.137 4.27624 9.89316 4.27624 9.09241C4.27624 7.99535 5.26828 7.50777 6.24344 7.50965C6.74789 7.50965 7.25235 7.58841 7.71368 7.79657L7.18297 8.80549H7.18484Z" fill="white"/>
<path d="M9.82905 12.1228H8.24442V7.65771H9.82905V12.1228Z" fill="white"/>
<path d="M13.2721 7.50964C12.7489 7.50964 12.2107 7.7178 11.9219 8.16225H11.905V7.65779H10.3204L10.3185 14.3508H11.9031V11.6972C12.2425 12.0891 12.7733 12.271 13.2871 12.2729C14.6111 12.2729 15.5243 11.1946 15.5243 9.90628C15.5243 8.62733 14.6017 7.51152 13.2702 7.51152L13.2721 7.50964ZM12.8708 10.8964C12.3157 10.8964 11.8656 10.4464 11.8656 9.89128C11.8656 9.33619 12.3157 8.88612 12.8708 8.88612C13.4259 8.88612 13.8759 9.33619 13.8759 9.89128C13.8759 10.4464 13.4259 10.8964 12.8708 10.8964Z" fill="white"/>
<path d="M16.0813 7.65962C16.6364 7.65962 17.0864 7.20959 17.0864 6.65446C17.0864 6.09932 16.6364 5.64929 16.0813 5.64929C15.5261 5.64929 15.0761 6.09932 15.0761 6.65446C15.0761 7.20959 15.5261 7.65962 16.0813 7.65962Z" fill="#00B1FF"/>
</svg>
