<svg width="20" height="20" viewBox="0 0 20 20" fill="none" xmlns="http://www.w3.org/2000/svg">
<path d="M0.499908 6.5C0.499908 4.567 2.04656 3 3.95445 3H16.0454C17.9533 3 19.4999 4.567 19.4999 6.5V13.5C19.4999 15.433 17.9533 17 16.0454 17H3.95445C2.04656 17 0.499908 15.433 0.499908 13.5V6.5Z" fill="#00B1FF"/>
<path d="M7.1831 8.80549C6.93931 8.67421 6.59988 8.58795 6.32984 8.58795C6.14793 8.58795 5.83288 8.66671 5.83288 8.89175C5.83288 9.19555 6.32984 9.24056 6.54737 9.28369C7.28812 9.43184 7.84508 9.78064 7.84321 10.6077C7.84321 11.7835 6.77241 12.2692 5.73537 12.2692C5.09964 12.2692 4.47328 12.0854 3.9332 11.7553L4.50892 10.6508C4.83147 10.8777 5.36968 11.1046 5.76162 11.1046C5.96228 11.1046 6.25858 11.009 6.25858 10.7652C6.25858 10.4164 5.76162 10.3995 5.26654 10.2682C4.76958 10.137 4.2745 9.89316 4.2745 9.09241C4.2745 7.99535 5.26654 7.50777 6.2417 7.50965C6.74616 7.50965 7.25061 7.58841 7.71194 7.79657L7.18123 8.80549H7.1831Z" fill="white"/>
<path d="M9.82728 12.1228H8.24265V7.65771H9.82728V12.1228Z" fill="white"/>
<path d="M13.2703 7.50964C12.7471 7.50964 12.2089 7.7178 11.9201 8.16225H11.9032V7.65779H10.3186L10.3167 14.3508H11.9013V11.6972C12.2408 12.0891 12.7715 12.271 13.2853 12.2729C14.6093 12.2729 15.5226 11.1946 15.5226 9.90628C15.5226 8.62733 14.5999 7.51152 13.2684 7.51152L13.2703 7.50964ZM12.869 10.8964C12.3139 10.8964 11.8638 10.4464 11.8638 9.89128C11.8638 9.33619 12.3139 8.88612 12.869 8.88612C13.4241 8.88612 13.8742 9.33619 13.8742 9.89128C13.8742 10.4464 13.4241 10.8964 12.869 10.8964Z" fill="white"/>
<path d="M16.0795 7.65962C16.6346 7.65962 17.0847 7.20959 17.0847 6.65446C17.0847 6.09932 16.6346 5.64929 16.0795 5.64929C15.5244 5.64929 15.0743 6.09932 15.0743 6.65446C15.0743 7.20959 15.5244 7.65962 16.0795 7.65962Z" fill="black"/>
</svg>
